<?xml version="1.0" encoding="UTF-8" standalone="no"?>
<!-- Created with Inkscape (http://www.inkscape.org/) -->

<svg
   width="240mm"
   height="120mm"
   viewBox="0 0 240 120"
   version="1.1"
   id="svg8"
   inkscape:version="1.4.1 (93de688d07, 2025-03-30)"
   sodipodi:docname="time-complexity.svg"
   xmlns:inkscape="http://www.inkscape.org/namespaces/inkscape"
   xmlns:sodipodi="http://sodipodi.sourceforge.net/DTD/sodipodi-0.dtd"
   xmlns="http://www.w3.org/2000/svg"
   xmlns:svg="http://www.w3.org/2000/svg"
   xmlns:rdf="http://www.w3.org/1999/02/22-rdf-syntax-ns#"
   xmlns:cc="http://creativecommons.org/ns#"
   xmlns:dc="http://purl.org/dc/elements/1.1/">
  <defs
     id="defs2">
    <marker
       style="overflow:visible"
       id="ArrowWide"
       refX="0"
       refY="0"
       orient="auto-start-reverse"
       inkscape:stockid="Wide arrow"
       markerWidth="1"
       markerHeight="1"
       viewBox="0 0 1 1"
       inkscape:isstock="true"
       inkscape:collect="always"
       preserveAspectRatio="xMidYMid">
      <path
         style="fill:none;stroke:context-stroke;stroke-width:1;stroke-linecap:butt"
         d="M 3,-3 0,0 3,3"
         transform="rotate(180,0.125,0)"
         sodipodi:nodetypes="ccc"
         id="path5" />
    </marker>
    <marker
       style="overflow:visible"
       id="ArrowWideRounded"
       refX="0"
       refY="0"
       orient="auto-start-reverse"
       inkscape:stockid="Wide, rounded arrow"
       markerWidth="1"
       markerHeight="1"
       viewBox="0 0 1 1"
       inkscape:isstock="true"
       inkscape:collect="always"
       preserveAspectRatio="xMidYMid">
      <path
         style="fill:none;stroke:context-stroke;stroke-width:1;stroke-linecap:round"
         d="M 3,-3 0,0 3,3"
         transform="rotate(180,0.125,0)"
         sodipodi:nodetypes="ccc"
         id="path4" />
    </marker>
  </defs>
  <sodipodi:namedview
     id="base"
     pagecolor="#ffffff"
     bordercolor="#666666"
     borderopacity="1.0"
     inkscape:pageopacity="0.0"
     inkscape:pageshadow="2"
     inkscape:zoom="2.0206968"
     inkscape:cx="376.60276"
     inkscape:cy="233.58279"
     inkscape:document-units="mm"
     inkscape:current-layer="layer1"
     showgrid="false"
     showborder="true"
     width="200mm"
     showguides="true"
     inkscape:guide-bbox="true"
     inkscape:window-width="1920"
     inkscape:window-height="1080"
     inkscape:window-x="0"
     inkscape:window-y="0"
     inkscape:window-maximized="1"
     inkscape:showpageshadow="2"
     inkscape:pagecheckerboard="0"
     inkscape:deskcolor="#d1d1d1">
    <inkscape:grid
       type="xygrid"
       id="grid815"
       units="mm"
       spacingx="10"
       spacingy="10"
       empspacing="4"
       dotted="false"
       originx="0"
       originy="0" />
  </sodipodi:namedview>
  <metadata
     id="metadata5">
    <rdf:RDF>
      <cc:Work
         rdf:about="">
        <dc:format>image/svg+xml</dc:format>
        <dc:type
           rdf:resource="http://purl.org/dc/dcmitype/StillImage" />
        <dc:title />
      </cc:Work>
    </rdf:RDF>
  </metadata>
  <g
     inkscape:label="Layer 1"
     inkscape:groupmode="layer"
     id="layer1"
     transform="translate(0,-177)">
    <path
       style="fill:#00ff24;fill-opacity:0;stroke:#1a1a1a;stroke-width:0.4;marker-start:url(#ArrowWide)"
       d="m 61.464557,199.61683 c 0.266078,71.84169 0.266078,71.84169 0.266078,71.84169"
       id="path1" />
    <path
       style="fill:#00ff24;fill-opacity:0;stroke:#1a1a1a;stroke-width:0.4;marker-start:;marker-end:url(#ArrowWideRounded)"
       d="m 46.297976,256.8241 c 101.642684,0 101.642684,0 101.642684,0"
       id="path2" />
    <text
       xml:space="preserve"
       style="font-size:3.175px;text-align:start;writing-mode:lr-tb;direction:ltr;text-anchor:start;fill:#00ff24;fill-opacity:0;stroke:#1a1a1a;stroke-width:0.2;stroke-dasharray:none"
       x="87.540436"
       y="263.74219"
       id="text5"><tspan
         sodipodi:role="line"
         id="tspan5"
         style="stroke-width:0.2;stroke-dasharray:none"
         x="87.540436"
         y="263.74219">Input size (n)</tspan></text>
    <text
       xml:space="preserve"
       style="font-size:3.175px;text-align:start;writing-mode:lr-tb;direction:ltr;text-anchor:start;fill:#00ff24;fill-opacity:0;stroke:#1a1a1a;stroke-width:0.2;stroke-dasharray:none"
       x="43.903255"
       y="235.00551"
       id="text6"><tspan
         sodipodi:role="line"
         id="tspan6"
         style="stroke-width:0.2"
         x="43.903255"
         y="235.00551">Time</tspan><tspan
         sodipodi:role="line"
         style="stroke-width:0.2"
         x="43.903255"
         y="238.97426"
         id="tspan7">T</tspan></text>
    <text
       xml:space="preserve"
       style="font-size:3.175px;text-align:start;writing-mode:lr-tb;direction:ltr;text-anchor:start;fill:#00ff24;fill-opacity:0;stroke:#1a1a1a;stroke-width:0.2;stroke-dasharray:none"
       x="13.304016"
       y="199.8829"
       id="text8"><tspan
         sodipodi:role="line"
         style="stroke-width:0.2"
         x="13.304016"
         y="199.8829"
         id="tspan9">P1</tspan></text>
    <text
       xml:space="preserve"
       style="font-size:3.175px;text-align:start;writing-mode:lr-tb;direction:ltr;text-anchor:start;fill:#00ff24;fill-opacity:0;stroke:#1a1a1a;stroke-width:0.2;stroke-dasharray:none"
       x="13.570097"
       y="210.26004"
       id="text10"><tspan
         sodipodi:role="line"
         id="tspan10"
         style="stroke-width:0.2"
         x="13.570097"
         y="210.26004">A1</tspan><tspan
         sodipodi:role="line"
         style="stroke-width:0.2"
         x="13.570097"
         y="214.22879"
         id="tspan11">A2</tspan><tspan
         sodipodi:role="line"
         style="stroke-width:0.2"
         x="13.570097"
         y="218.19754"
         id="tspan12">A3</tspan><tspan
         sodipodi:role="line"
         style="stroke-width:0.2"
         x="13.570097"
         y="222.16629"
         id="tspan13">A4</tspan><tspan
         sodipodi:role="line"
         style="stroke-width:0.2"
         x="13.570097"
         y="226.13504"
         id="tspan14">A5</tspan></text>
    <path
       style="fill:#00ff24;fill-opacity:0;stroke:#1a1a1a;stroke-width:0.2;stroke-dasharray:none"
       d="m 17.364797,198.24739 c 0.417198,0.23164 0.868034,0.40442 1.282323,0.64116 0.110469,0.0631 0.206867,0.15686 0.320581,0.21372 0.149474,0.0747 0.287096,0.17359 0.427441,0.26715 0.06976,0.0465 0.149358,0.0889 0.21372,0.14248 0.276199,0.23017 0.480964,0.53442 0.694593,0.81926 0.123134,0.16418 0.265298,0.32474 0.37401,0.49868 0.05532,0.0885 0.09577,0.19154 0.142481,0.28496 0.09405,0.18811 0.193746,0.37418 0.26715,0.56993 0.03984,0.10624 0.09282,0.31512 0.106861,0.42744 0.0085,0.0683 0,0.14485 0,0.21372 0,0.14841 0,0.29683 0,0.44525 0,0.2217 0.02206,0.45623 0,0.67678 -0.02172,0.21724 -0.06139,0.44805 -0.12467,0.65897 -0.04565,0.15217 -0.125205,0.29538 -0.178101,0.44525 -0.07888,0.2235 -0.142698,0.4635 -0.249341,0.67678 -0.06123,0.12246 -0.143251,0.23876 -0.21372,0.35621 -0.0887,0.14782 -0.171541,0.30183 -0.267151,0.44525 -0.146535,0.2198 -0.390922,0.36268 -0.552112,0.56992 -0.0425,0.0547 -0.06716,0.12138 -0.10686,0.1781 -0.0851,0.12157 -0.18207,0.23466 -0.26715,0.3562 -0.07866,0.11237 -0.143129,0.23855 -0.213721,0.3562 -0.136413,0.22736 0.03784,-0.0541 -0.12467,0.1781 -0.158386,0.22627 -0.274209,0.48255 -0.427442,0.71241 -0.07885,0.11827 -0.177413,0.21289 -0.26715,0.32058 -0.04088,0.0491 -0.06696,0.11041 -0.106861,0.16028 -0.06276,0.0785 -0.20559,0.22544 -0.28496,0.28497 -0.02124,0.0159 -0.04915,0.0209 -0.07124,0.0356 -0.05963,0.0397 -0.09663,0.12846 -0.160291,0.16029 -0.0073,0.004 -0.08406,0.005 -0.08905,0 -0.01805,-0.0181 0,-0.14974 0,-0.1781 0,-0.14842 0,-0.29684 0,-0.44526 0,-0.0678 -0.01113,-0.14697 0,-0.21372 0.0031,-0.0185 0.01472,-0.0349 0.01781,-0.0534 0.0087,-0.052 -0.0087,-0.1083 0,-0.16029 0.0085,-0.0512 0.01781,-0.0892 0.01781,-0.14248 0,-0.0653 0,-0.1306 0,-0.19591 0,-0.0297 0,-0.0594 0,-0.089 0,-0.006 0.0059,-0.0178 0,-0.0178 -0.0074,0 -10e-6,0.12465 0.01781,0.14248 0.07933,0.0793 0.07124,0.24359 0.07124,0.3562 0,0.0573 0.01792,0.42721 0,0.46306 -0.01871,0.0374 -0.0092,0.054 -0.01781,0.0712 -0.02443,0.0489 -0.06316,0.0907 -0.08905,0.14248 -0.0054,0.0107 0.0082,0.0452 0,0.0534 -0.0042,0.004 -0.01361,-0.004 -0.01781,0 -0.01624,0.0162 0,0.13478 0,0.16029 0,0.0119 -0.0084,0.0272 0,0.0356 0.0042,0.004 0.01187,0 0.01781,0 0,0.006 -0.0042,0.0136 0,0.0178 0.0031,0.003 0.257183,0 0.284961,0 0.09697,0 0.558147,-0.0148 0.587731,0 0.100477,0.0502 0.258534,0.009 0.338391,0.0356 0.008,0.003 0.0103,0.014 0.01781,0.0178 0.02008,0.01 0.06731,0 0.08905,0 0.05733,0 -0.0304,-0.004 0.03562,0.0178 0.06259,0.0209 0.301027,0 0.374011,0 0.03562,0 0.07124,0 0.10686,0 0.0059,0 0.01781,0.006 0.01781,0 0,-0.0172 -0.0532,0.0354 -0.05343,0.0356"
       id="path14" />
    <path
       style="fill:#00ff24;fill-opacity:0;stroke:#1a1a1a;stroke-width:0.2"
       d="m 61.331387,246.98642 c 84.312003,0.14923 84.312003,0.14923 84.312003,0.14923"
       id="path3" />
    <text
       xml:space="preserve"
       style="font-size:3.175px;text-align:start;writing-mode:lr-tb;direction:ltr;text-anchor:start;fill:#00ff24;fill-opacity:0;stroke:#1a1a1a;stroke-width:0.2"
       x="147.13564"
       y="246.68797"
       id="text3"><tspan
         sodipodi:role="line"
         style="stroke-width:0.2"
         x="147.13564"
         y="246.68797"
         id="tspan4">A1</tspan></text>
    <path
       style="fill:#00ff24;fill-opacity:0;stroke:#1a1a1a;stroke-width:0.2"
       d="M 61.409304,257.00231 137.0907,197.29519"
       id="path9" />
    <text
       xml:space="preserve"
       style="font-size:3.175px;text-align:start;writing-mode:lr-tb;direction:ltr;text-anchor:start;fill:#00ff24;fill-opacity:0;stroke:#1a1a1a;stroke-width:0.2"
       x="149.9225"
       y="222.95877"
       id="text15"><tspan
         sodipodi:role="line"
         id="tspan15"
         style="stroke-width:0.2"
         x="149.9225"
         y="222.95877">A2</tspan></text>
    <text
       xml:space="preserve"
       style="font-size:3.175px;text-align:start;writing-mode:lr-tb;direction:ltr;text-anchor:start;fill:#00ff24;fill-opacity:0;stroke:#1a1a1a;stroke-width:0.2"
       x="136.43602"
       y="193.75989"
       id="text16"><tspan
         sodipodi:role="line"
         id="tspan16"
         style="stroke-width:0.2"
         x="136.43602"
         y="193.75989">A3</tspan></text>
    <path
       style="fill:#00ff24;fill-opacity:0;stroke:#1a1a1a;stroke-width:0.2"
       d="m 61.671175,252.81234 c 0,0 63.111485,-1.4403 88.513195,-28.5442"
       id="path17" />
    <path
       style="fill:#00ff24;fill-opacity:0;stroke:#1a1a1a;stroke-width:0.105902"
       d="m 61.527805,257.29094 c 0,0 20.906909,-29.74948 20.760193,-59.36791"
       id="path18" />
    <text
       xml:space="preserve"
       style="font-size:3.175px;text-align:start;writing-mode:lr-tb;direction:ltr;text-anchor:start;fill:#00ff24;fill-opacity:0;stroke:#1a1a1a;stroke-width:0.2"
       x="80.133247"
       y="192.97427"
       id="text18"><tspan
         sodipodi:role="line"
         id="tspan18"
         style="stroke-width:0.2"
         x="80.133247"
         y="192.97427">A5</tspan></text>
    <path
       style="fill:#00ff24;fill-opacity:0;stroke:#1a1a1a;stroke-width:0.182656"
       d="m 61.27453,257.00739 c 0,0 52.83087,-40.19803 53.82978,-63.77574"
       id="path19" />
    <text
       xml:space="preserve"
       style="font-size:3.175px;text-align:start;writing-mode:lr-tb;direction:ltr;text-anchor:start;fill:#00ff24;fill-opacity:0;stroke:#1a1a1a;stroke-width:0.2"
       x="111.81992"
       y="190.61742"
       id="text19"><tspan
         sodipodi:role="line"
         id="tspan19"
         style="stroke-width:0.2"
         x="111.81992"
         y="190.61742">A4</tspan></text>
  </g>
</svg>
